<svg width="48" height="48" viewBox="0 0 48 48" fill="none" xmlns="http://www.w3.org/2000/svg">
<g clip-path="url(#clip0)">
<path d="M24.0752 24.0001C24.5551 24.0001 25.035 24.1438 25.3949 24.408L43.3949 36.4081C44.0431 36.8401 44.4751 37.5599 44.4751 38.4001V45.6001C44.4751 46.9198 43.3949 48 42.0752 48C41.5949 48 41.115 47.8559 40.7551 47.5922L24.0752 36.4802L7.3949 47.5922C7.03499 47.8559 6.5551 48 6.07522 48C4.7551 48 3.67493 46.9198 3.67493 45.6001L3.67493 38.4001C3.67493 37.5599 4.10691 36.8401 4.7551 36.4081L22.7551 24.408C23.115 24.1438 23.5949 24.0001 24.0752 24.0001Z" fill="#68130A" fill-opacity="0.9"/>
<path d="M24.0752 -4.95911e-05C24.5551 -4.95911e-05 25.035 0.144091 25.3949 0.408203L43.3949 12.4079C44.0431 12.8399 44.4751 13.5602 44.4751 14.4V21.6C44.4751 22.9201 43.3949 24.0002 42.0752 24.0002C41.5949 24.0002 41.115 23.8561 40.7551 23.592L24.0752 12.48L7.3949 23.592C7.03499 23.8561 6.5551 24.0002 6.07522 24.0002C4.7551 24.0002 3.67493 22.9201 3.67493 21.6L3.67493 14.4C3.67493 13.5602 4.10691 12.8399 4.7551 12.4079L22.7551 0.408203C23.115 0.144091 23.5949 -4.95911e-05 24.0752 -4.95911e-05Z" fill="#68130A" fill-opacity="0.9"/>
</g>
<defs>
<clipPath id="clip0">
<rect width="48" height="48" fill="white" transform="translate(0 48) rotate(-90)"/>
</clipPath>
</defs>
</svg>
