<svg width="48" height="83" viewBox="0 0 48 83" fill="none" xmlns="http://www.w3.org/2000/svg">
<path d="M42.419 0H5.58096C2.5119 0 0 2.50954 0 5.58096V77.045C0 80.1165 2.5119 82.6284 5.58096 82.6284H42.419C45.4881 82.6284 48 80.1212 48 77.0474V5.58096C48 2.50954 45.4881 0 42.419 0ZM18.1074 4.02282H29.8926C30.2656 4.02282 30.5678 4.32501 30.5678 4.70037C30.5678 5.07338 30.2656 5.37557 29.8926 5.37557H18.1074C17.7344 5.37557 17.4322 5.07338 17.4322 4.70037C17.4322 4.32501 17.7344 4.02282 18.1074 4.02282ZM24 79.8379C22.4584 79.8379 21.2095 78.589 21.2095 77.045C21.2095 75.5011 22.4584 74.2546 24 74.2546C25.5416 74.2546 26.7905 75.5011 26.7905 77.045C26.7905 78.589 25.5416 79.8379 24 79.8379ZM44.1165 72.2998H3.88353V8.85068H44.1165V72.2998Z" fill="white"/>
</svg>
