<svg width="46" height="46" viewBox="0 0 46 46" fill="none" xmlns="http://www.w3.org/2000/svg">
<path d="M15 2H31C38.1797 2 44 7.8203 44 15V31C44 38.1797 38.1797 44 31 44H15C7.8203 44 2 38.1797 2 31V15C2 7.8203 7.8203 2 15 2Z" stroke="black" stroke-width="4"/>
<path d="M30.928 22C30.991 21.628 31.023 21.247 31.023 20.857C31.023 17.07 27.953 14 24.166 14C23.777 14 23.395 14.032 23.023 14.095M28.023 21C28.023 18.791 26.232 17 24.023 17L28.023 21Z" stroke="black" stroke-width="2" stroke-miterlimit="10" stroke-linecap="round"/>
<path d="M33.757 23C33.916 22.298 34 21.568 34 20.818C34 15.396 29.604 11 24.182 11C23.432 11 22.702 11.084 22 11.243" stroke="black" stroke-width="2" stroke-miterlimit="10" stroke-linecap="round"/>
<path d="M10 16.1176C10.051 13.7676 11.853 12.4466 13.673 12.0456C14.369 11.8916 14.984 12.1376 15.501 12.6306C16.929 13.9936 18.058 15.5736 18.909 17.3466C19.282 18.1236 19.114 18.8126 18.48 19.3906C18.349 19.5106 18.211 19.6226 18.069 19.7296C16.623 20.8176 16.41 21.6396 17.181 23.2766C18.495 26.0626 20.671 27.9326 23.489 29.0926C24.232 29.3986 24.93 29.2476 25.498 28.6456C25.574 28.5646 25.66 28.4876 25.716 28.3946C26.827 26.5416 28.438 26.7256 29.925 27.7826C30.902 28.4776 31.852 29.2086 32.818 29.9176C34.29 30.9986 34.277 32.0146 33.382 33.4776C32.728 34.5466 31.749 35.2866 30.596 35.7686C29.754 36.1206 28.894 36.0466 28.064 35.6946C21.096 32.7466 15.634 28.0996 12.022 21.4206C11.278 20.0446 10.76 18.5466 10.167 17.0926C10.045 16.7956 10.052 16.4446 10 16.1176Z" fill="black"/>
</svg>
